# xmcd CD database file
#
# Track frame offsets:
#	150
#	25330
#	47225
#	64194
#
# Disc length: 1079 seconds
#
# Revision: 1
# Processed by: cddbd v1.5.2PL0 Copyright (c) Steve Scherf et al.
# Submitted via: CDex 1.70beta2
#
DISCID=32043504
DTITLE=中孝介 - 絆
DYEAR=2008
DGENRE=JPop
TTITLE0=絆
TTITLE1=夏夕空
TTITLE2=サンサーラ
TTITLE3=わたしの空
EXTD=YEAR: 2008
EXTT0=
EXTT1=
EXTT2=
EXTT3=
PLAYORDER=
